<?xml version="1.0" encoding="utf-8"?>
<!-- Generator: Adobe Illustrator 18.0.0, SVG Export Plug-In . SVG Version: 6.00 Build 0)  -->
<!DOCTYPE svg PUBLIC "-//W3C//DTD SVG 1.1//EN" "http://www.w3.org/Graphics/SVG/1.1/DTD/svg11.dtd">
<svg version="1.1" xmlns="http://www.w3.org/2000/svg" xmlns:xlink="http://www.w3.org/1999/xlink" x="0px" y="0px"
	 viewBox="0 0 203 203" enable-background="new 0 0 203 203" xml:space="preserve">
<g id="alphabet-a">
	<path id="path" fill="none" stroke="#000000" stroke-miterlimit="10" d="M25,185.4l76.5-158.9v0.2L178,185.4L60.7,103.1h81.6"/>
</g>
<g id="alphabet-b" display="none">
	<path id="path_1_" fill="none" stroke="#000000" stroke-miterlimit="10" d="M62.9,185.5v-159l33.6,0.1l12.2-0.1
		c21.1,0,38.3,17.2,38.3,38.3v0c0,21.1-17.2,38.3-38.3,38.3h13.1c22.6,0,41.2,18.5,41.2,41.2v0c0,22.6-18.5,41.2-41.2,41.2h-21.5"/>
</g>
<g id="alphabet-c" display="none">
	<path id="path_2_" display="inline" fill="none" stroke="#000000" stroke-miterlimit="10" d="M165.4,167.3
		c-13.7,11.3-31.4,18.2-50.6,18.2c-43.9,0-79.5-35.6-79.5-79.5s35.6-79.5,79.5-79.5c19.3,0,37,6.9,50.8,18.3"/>
</g>
<g id="alphabet-m" display="none">
	<path id="path_3_" display="inline" fill="none" stroke="#000000" stroke-miterlimit="10" d="M-16.5,185.7L50,26.9l71.2,158.9
		l-42.1,0l73.7-159.2l66.7,159.1"/>
</g>
<g id="alphabet-k" display="none">
	<path display="inline" fill="none" stroke="#231F20" stroke-miterlimit="10" d="M47.8,26.6V186L154.1,27.9l-47.9,90.7l48.6,67.6"/>
</g>
<g id="alphabet-d" display="none">
	<path display="inline" fill="none" stroke="#000000" stroke-miterlimit="10" d="M35.7,185.5v-159l52.2-0.1
		c43.9,0,79.5,35.6,79.5,79.5s-35.6,79.5-79.5,79.5l-14.8,0.1"/>
</g>
<g id="alphabet-e" display="none">
	<path display="inline" fill="none" stroke="#000000" stroke-miterlimit="10" d="M146.7,26.6l-90.2,0.2l-0.1,159h90.4l-90.4-82.6h72
		"/>
</g>
<g id="alphabet-f" display="none">
	<path display="inline" fill="none" stroke="#000000" stroke-miterlimit="10" d="M146.7,26.2l-90.2,0.2l-0.1,76.7l0.1,82.3l7.5-82.6
		l64.3,0"/>
</g>
<g id="alphabet-g" display="none">
	<path display="inline" fill="none" stroke="#000000" stroke-miterlimit="10" d="M165.9,44.9c-13.8-11.4-31.5-18.3-50.8-18.3
		c-43.9,0-79.5,35.6-79.5,79.5s35.6,79.5,79.5,79.5c19.2,0,36.8-6.8,50.6-18.2l-53.5-64.2l55.3,0"/>
</g>
<g id="Layer_10">
</g>
</svg>
