<?xml version="1.0" encoding="utf-8"?>
<!-- Generator: Adobe Illustrator 18.0.0, SVG Export Plug-In . SVG Version: 6.00 Build 0)  -->
<!DOCTYPE svg PUBLIC "-//W3C//DTD SVG 1.1//EN" "http://www.w3.org/Graphics/SVG/1.1/DTD/svg11.dtd">
<svg version="1.1" id="Layer_1" xmlns="http://www.w3.org/2000/svg" xmlns:xlink="http://www.w3.org/1999/xlink" x="0px" y="0px"
	 viewBox="0 0 640 480" enable-background="new 0 0 640 480" xml:space="preserve">
<g id="alpha-16" data-alphabet="e">
	<path fill="none" stroke="#000000" stroke-miterlimit="10" d="M591,358.9l-53,0.1l-0.1,93.3H591l-53-48.4h42.3"/>
</g>
<g id="alpha-15" data-alphabet="l">
	<path fill="none" stroke="#000000" stroke-miterlimit="10" d="M450.7,358.9V404l-0.1,48.4h53.1"/>
</g>
<g id="alpha-14" data-alphabet="p">
	<path fill="none" stroke="#0C0C0C" stroke-miterlimit="10" d="M353.2,452.2v-93.3l0,0h31.6h5.5c14.4,0,26.1,11.7,26.1,26.1l0,0l0,0
		c0,13.8-11.3,25-25,25h-13.9"/>
</g>
<g id="alpha-13" data-alphabet="o">
	<path fill="none" stroke="#000000" stroke-miterlimit="10" d="M271.5,452.3c-25.8,0-46.7-20.9-46.7-46.7s20.9-46.7,46.7-46.7
		s46.7,20.9,46.7,46.7c0,17.8-9.9,33.3-24.6,41.2"/>
</g>
<g id="alpha-12" data-alphabet="e">
	<path fill="none" stroke="#000000" stroke-miterlimit="10" d="M200.2,358.9l-53,0.1l-0.1,93.3h53L147,403.8h42.3"/>
</g>
<g id="alpha-11" data-alphabet="p">
	<path fill="none" stroke="#0C0C0C" stroke-miterlimit="10" d="M48,452.3V359l0,0h31.7h5.5c14.4,0,26.1,11.7,26.1,26.1l0,0l0,0
		c0,13.7-11.2,25-25,25H72.4"/>
</g>
<g id="alpha-10" data-alphabet="s">
	<path fill="none" stroke="#000000" stroke-miterlimit="10" d="M572.5,209.7c0-12.4-12-22.5-26.9-22.5s-26.9,10.1-26.9,22.5
		s12,22.5,26.9,22.5c16,0,28.9,10.8,28.9,24.2c0,13.3-13,24.2-28.9,24.2s-28.9-10.8-28.9-24.2"/>
</g>
<g id="alpha-9" data-alphabet="e">
	<path fill="none" stroke="#000000" stroke-miterlimit="10" d="M483.8,187.2l-53,0.1l-0.1,93.3h53l-53.1-48.5H473"/>
</g>
<g id="alpha-8" data-alphabet="v">
	<path fill="none" stroke="#000000" stroke-miterlimit="10" d="M327,187.3l36.1,93.2l10.9-28.2l25.2-65"/>
</g>
<g id="alpha-7" data-alphabet="o">
	<path fill="none" stroke="#000000" stroke-miterlimit="10" d="M256.6,280.6c-25.8,0-46.7-20.9-46.7-46.7s20.9-46.7,46.7-46.7
		s46.7,20.9,46.7,46.7c0,17.8-9.9,33.3-24.6,41.2"/>
</g>
<g id="alpha-6" data-alphabet="m">
	<path fill="none" stroke="#000000" stroke-miterlimit="10" d="M49.6,280.6l39-93.2l41.8,93.3h-24.7l43.3-93.5l39.2,93.4"/>
</g>
<g id="alpha-5" data-alphabet="e">
	<path fill="none" stroke="#000000" stroke-miterlimit="10" d="M599,17.2l-53,0.1l-0.1,93.3H599l-53.1-48.4h42.3"/>
</g>
<g id="alpha-4" data-alphabet="l">
	<path fill="none" stroke="#000000" stroke-miterlimit="10" d="M458.6,17.1v45.1l-0.1,48.4h53.1"/>
</g>
<g id="alpha-3" data-alphabet="i">
	<path fill="none" stroke="#000000" stroke-miterlimit="10" d="M419.2,17.1v26l-0.1,33.7v33.8"/>
</g>
<g id="alpha-2" data-alphabet="b">
	<path fill="none" stroke="#000000" stroke-miterlimit="10" d="M323.7,110.7V17.3l19.7,0.1l7.2-0.1c12.4,0,22.5,10.1,22.5,22.5l0,0
		c0,12.4-10.1,22.5-22.5,22.5h7.7c13.3,0,24.2,10.9,24.2,24.2l0,0c0,13.3-10.9,24.2-24.2,24.2h-12.6"/>
</g>
<g id="alpha-1" data-alphabet="o">
	<path fill="none" stroke="#000000" stroke-miterlimit="10" d="M244.3,110.7c-25.8,0-46.7-20.9-46.7-46.7s20.9-46.7,46.7-46.7
		S291,38.2,291,64c0,17.8-9.9,33.3-24.6,41.2"/>
</g>
<g id="alpha-0" data-alphabet="m">
	<path fill="none" stroke="#000000" stroke-miterlimit="10" d="M35.5,110.5l39-93.2l41.8,93.3H91.7L135,17.1l39.2,93.4"/>
</g>
</svg>
